<?xml version="1.0" standalone="no"?>
<!DOCTYPE svg PUBLIC "-//W3C//DTD SVG 20010904//EN"
 "http://www.w3.org/TR/2001/REC-SVG-20010904/DTD/svg10.dtd">
<svg version="1.0" xmlns="http://www.w3.org/2000/svg"
 width="458.000000pt" height="196.000000pt" viewBox="0 0 458.000000 196.000000"
 preserveAspectRatio="xMidYMid meet">
<metadata>
Created by potrace 1.15, written by Peter Selinger 2001-2017
</metadata>
<g transform="translate(0.000000,196.000000) scale(0.100000,-0.100000)"
fill="#000000" stroke="none">
<path d="M1 1714 c1 -140 4 -238 9 -224 5 17 8 19 9 8 1 -21 21 -24 21 -4 0
11 14 16 48 18 28 2 47 8 47 15 0 7 7 18 16 25 20 16 32 48 19 48 -6 0 -10 4
-10 10 0 5 7 7 15 4 8 -3 31 0 52 7 21 7 33 14 26 16 -9 3 -9 10 -1 29 9 20 8
28 -7 44 -19 21 -19 21 9 11 15 -6 29 -11 30 -11 1 0 3 15 3 32 0 31 -16 58
-34 58 -4 0 -8 13 -9 28 -1 22 5 31 27 41 28 12 33 36 10 51 -11 6 -11 9 0 12
36 13 -14 22 -141 26 l-140 5 1 -249z"/>
<path d="M1326 1903 c-21 -33 -36 -70 -36 -88 0 -44 -11 -75 -25 -75 -7 0 -15
-5 -17 -12 -2 -6 -27 -14 -55 -18 l-51 -6 -6 37 c-3 20 -13 40 -22 43 -17 6
-231 2 -347 -8 -41 -3 -82 -13 -100 -25 -18 -10 -50 -22 -72 -26 -22 -3 -50
-16 -62 -27 -18 -17 -30 -19 -63 -14 -24 4 -40 2 -40 -4 0 -5 12 -11 28 -11
15 -1 20 -3 10 -6 -9 -2 -24 -25 -33 -53 -13 -41 -19 -47 -38 -44 -15 3 -11
-1 9 -10 37 -18 48 -40 33 -68 -6 -11 -9 -32 -6 -45 l5 -26 -84 7 c-69 6 -84
4 -84 -7 0 -11 24 -16 98 -20 96 -7 171 -24 224 -53 14 -8 46 -14 71 -14 24 0
58 -7 76 -16 38 -19 68 -13 104 20 23 21 31 23 64 15 21 -5 59 -6 86 -2 37 4
52 12 68 34 19 27 25 29 89 29 59 0 69 3 75 19 8 26 32 17 31 -11 -1 -19 8
-24 59 -35 33 -7 73 -20 88 -29 18 -10 38 -13 57 -9 37 8 41 -12 5 -21 -36 -9
-62 -47 -76 -112 -14 -69 -101 -324 -140 -411 -16 -35 -29 -70 -29 -77 0 -7
-11 -30 -25 -50 -14 -20 -25 -45 -25 -55 0 -43 -72 -230 -101 -261 -16 -18
-30 -36 -30 -40 -1 -5 -2 -11 -3 -16 0 -4 -20 -24 -42 -45 -23 -20 -47 -52
-54 -70 -6 -17 -16 -40 -21 -49 -14 -28 -11 -55 9 -63 15 -6 15 -8 -4 -15 -12
-5 -24 -20 -26 -34 l-5 -26 208 0 c201 0 209 1 209 20 0 10 -10 25 -22 31
l-22 12 22 8 c26 10 27 18 8 80 -9 28 -12 70 -9 110 5 64 5 64 -27 82 -18 10
-30 20 -27 23 3 3 16 -1 29 -10 l24 -16 27 83 c15 46 27 89 27 96 0 7 9 24 20
38 11 14 20 38 20 54 0 15 4 30 9 33 4 3 16 27 26 53 28 77 138 303 147 303 4
0 8 -4 8 -9 0 -5 9 -73 19 -152 10 -79 17 -158 14 -175 -3 -18 2 -47 10 -65
27 -64 56 -245 45 -292 -5 -23 -7 -53 -4 -67 2 -14 -5 -52 -17 -86 -24 -69
-19 -94 18 -94 15 0 24 -4 20 -10 -3 -5 -1 -10 6 -10 7 0 9 -3 6 -6 -4 -4 -12
-2 -20 4 -19 16 -57 3 -57 -19 0 -18 11 -19 205 -19 113 0 205 3 205 8 0 4
-13 13 -30 20 -29 13 -44 40 -17 29 8 -3 20 -1 28 4 21 13 -13 133 -51 181
-17 20 -30 43 -30 52 0 13 -63 86 -75 86 -3 0 -3 -16 1 -36 5 -27 4 -35 -5
-30 -6 4 -11 14 -11 21 0 8 -9 19 -19 25 -28 15 -33 13 -21 -9 14 -27 13 -31
-5 -24 -9 3 -21 -2 -28 -11 -12 -16 -14 -16 -31 3 -22 24 -12 44 19 39 18 -4
22 -1 18 11 -4 9 -10 21 -15 28 -5 7 -5 14 2 18 5 3 10 -1 10 -10 0 -10 7 -15
18 -13 9 1 23 -1 31 -6 8 -5 16 -4 21 4 4 7 12 10 17 7 6 -4 8 4 5 18 -2 14
-8 22 -14 19 -5 -3 -6 5 -3 19 4 13 1 51 -5 83 -7 33 -11 76 -11 97 1 20 -3
37 -8 37 -6 0 -8 7 -5 15 3 8 2 20 -2 27 -4 7 -9 19 -10 28 -14 129 -21 231
-20 300 l1 84 60 14 c74 18 142 17 164 -1 9 -7 39 -23 66 -35 28 -11 79 -34
114 -51 l65 -30 49 -128 c28 -70 53 -130 57 -133 4 -3 22 -50 40 -105 25 -78
33 -125 38 -218 4 -64 4 -117 0 -117 -4 0 -12 -26 -18 -57 -7 -32 -18 -72 -25
-89 -7 -17 -16 -52 -20 -78 -7 -45 -7 -46 19 -46 16 0 25 -4 21 -10 -3 -6 -14
-10 -24 -10 -9 0 -26 -7 -37 -15 -17 -13 7 -14 217 -15 192 0 236 3 236 14 0
7 -5 13 -11 13 -6 0 -20 1 -31 2 -18 2 -18 3 3 12 21 8 23 13 17 52 -9 53 -40
127 -55 127 -5 0 -20 20 -32 45 -12 25 -27 44 -34 41 -6 -2 -17 0 -24 4 -11 7
-11 12 -2 23 9 11 8 31 -8 92 -11 42 -21 105 -21 139 -6 210 6 486 22 486 5 0
27 27 49 61 29 45 40 75 45 117 8 70 20 102 40 102 8 0 15 3 15 6 0 9 -50 282
-61 335 l-10 46 -179 117 c-99 65 -184 115 -189 112 -5 -4 -12 -2 -16 4 -4 6
-170 10 -480 10 l-473 0 -36 -57z"/>
<path d="M4238 1940 c12 -12 12 -15 1 -19 -8 -2 -19 -11 -25 -19 -8 -11 -13
-12 -18 -4 -11 18 -46 14 -46 -4 0 -20 -28 -43 -52 -44 -10 0 -18 -5 -18 -11
0 -5 -8 -9 -17 -8 -39 3 -73 -2 -73 -11 0 -5 21 -10 48 -11 26 0 42 -3 35 -5
-8 -4 -5 -13 9 -30 22 -25 52 -32 63 -14 8 12 85 13 104 1 12 -8 12 -14 4 -33
l-12 -23 0 23 c-1 24 -8 27 -30 13 -10 -7 -10 -10 -1 -16 9 -6 6 -11 -10 -20
-22 -12 -21 -13 22 -29 24 -10 50 -16 57 -14 8 2 16 -3 18 -9 3 -9 -7 -13 -29
-14 -23 -1 -26 -3 -10 -6 12 -2 39 1 59 8 34 11 35 13 18 25 -18 13 -18 14 3
14 13 0 22 -6 22 -16 0 -12 7 -14 33 -9 50 11 101 6 113 -10 14 -18 54 -20 54
-2 0 8 4 7 10 -3 6 -10 10 41 10 153 l0 169 -178 -4 c-156 -3 -177 -5 -164
-18z"/>
<path d="M3 1250 c0 -91 2 -149 4 -130 3 19 11 43 20 52 8 9 16 28 17 41 0 14
4 23 7 21 4 -2 9 3 13 11 3 8 11 15 18 15 39 1 82 76 50 87 -9 2 -27 10 -40
16 -13 6 -36 10 -52 9 -23 -2 -29 3 -33 20 -2 13 -4 -51 -4 -142z"/>
<path d="M2943 1015 c-22 -9 -33 -21 -33 -35 0 -26 18 -61 39 -77 11 -8 12
-12 4 -13 -7 0 -13 -8 -13 -19 0 -15 -10 -19 -57 -24 -32 -3 -62 -2 -67 3 -7
7 -6 10 1 10 6 0 14 7 17 16 3 8 2 13 -3 9 -5 -3 -12 1 -14 7 -4 10 -6 10 -6
0 -1 -9 -12 -10 -41 -6 -33 5 -40 4 -40 -10 0 -9 7 -19 15 -22 8 -4 14 -16 14
-28 -1 -16 -2 -17 -6 -3 -3 11 -14 17 -35 17 -21 0 -29 4 -25 14 6 15 -38 44
-50 33 -3 -4 -7 -18 -8 -32 0 -18 5 -25 20 -26 18 -1 18 -2 2 -6 -15 -4 -12
-8 15 -22 35 -19 128 -36 128 -23 0 4 20 15 45 24 33 13 52 15 71 8 14 -6 39
-10 55 -10 33 0 37 -7 13 -25 -14 -10 -17 -34 -16 -161 0 -109 5 -158 16 -184
19 -47 24 -29 45 167 7 73 25 100 40 62 7 -19 9 -12 8 34 -2 48 -4 55 -14 40
-11 -14 -13 -14 -13 -2 0 20 20 39 40 39 33 0 70 -25 70 -47 0 -15 6 -23 16
-23 28 0 84 -40 84 -60 0 -10 4 -21 9 -24 5 -3 12 -22 16 -43 3 -20 10 -32 13
-26 4 6 18 10 32 9 24 -1 25 1 22 45 -2 26 1 50 7 54 7 4 11 -12 11 -49 0 -55
1 -56 28 -55 23 2 24 2 5 6 -22 4 -23 9 -23 91 0 55 -4 82 -9 73 -5 -8 -7 -21
-4 -30 4 -14 3 -14 -6 -1 -19 26 -13 50 12 50 18 0 19 2 7 10 -11 7 -11 10 -2
10 16 0 62 -28 81 -49 12 -14 13 -14 7 2 -3 11 2 26 14 39 11 12 17 25 13 29
-5 4 -35 10 -69 14 l-61 7 -22 -37 c-11 -20 -17 -33 -11 -30 6 4 10 -7 10 -24
0 -34 -2 -36 -32 -20 -15 8 -18 17 -14 35 4 13 3 24 -1 23 -34 -6 -73 3 -73
16 0 8 -12 26 -27 40 -23 21 -37 25 -88 25 -85 0 -93 8 -106 113 -7 48 -14 87
-18 87 -3 -1 -21 -7 -38 -15z"/>
<path d="M0 158 l0 -158 183 0 c199 0 398 16 410 34 5 8 10 7 16 -3 6 -9 11
-10 15 -2 8 13 -38 26 -55 16 -8 -5 -9 -1 -5 13 4 11 2 23 -3 27 -6 3 -8 0 -5
-9 6 -16 -31 -42 -40 -27 -3 5 -18 12 -33 15 -39 10 -83 30 -83 38 0 4 15 8
33 10 l33 3 -9 44 c-6 32 -11 40 -18 30 -5 -8 -9 -9 -9 -4 0 14 -49 35 -84 36
-52 2 -80 14 -93 39 -7 14 -13 20 -13 13 0 -8 -14 -7 -52 3 -29 7 -80 15 -113
16 -33 2 -63 8 -67 13 -4 6 -8 -61 -8 -147z"/>
<path d="M4310 127 c-25 -12 -46 -25 -48 -28 -2 -4 -35 -5 -74 -2 -45 3 -73 0
-78 -7 -4 -6 -14 -8 -23 -4 -9 3 -14 10 -11 15 3 5 2 9 -3 8 -4 -2 -20 3 -35
11 -30 14 -123 5 -112 -11 3 -6 13 -8 23 -4 11 4 13 3 6 -4 -6 -6 -60 -15
-120 -21 -61 -6 -132 -13 -158 -16 -29 -4 -53 -2 -60 5 -7 7 -13 6 -21 -4 -14
-17 -208 -33 -488 -41 -112 -3 -207 -9 -213 -15 -5 -5 305 -9 838 -9 l847 0 0
44 c0 31 -5 46 -16 50 -8 3 -13 10 -10 14 3 5 -29 12 -71 16 -43 3 -82 11 -87
16 -15 15 -36 12 -86 -13z"/>
</g>
</svg>
